<svg xmlns="http://www.w3.org/2000/svg" viewBox="0 0 632.3 632.3"><title>Asset 106</title><g id="Layer_2" data-name="Layer 2"><g id="Layer_1-2" data-name="Layer 1"><path d="M632.19,18l.11,1S632.26,18.68,632.19,18Z" fill="#8379b0" opacity="0.41"/><rect width="632.3" height="632.3" transform="translate(632.3 632.3) rotate(180)" fill="#fee5d9"/><path d="M0,172.78c46.14-31,102.54-53.6,135.49-99.08C150.77,52.6,159.32,25.18,154.76,0H0Z" fill="#fac9d4"/><path d="M603,296.25c-14.54,16.22,11.72,50.1-7.62,75.21-18,23.35-48.5,4.23-77.65,25.36-42,30.48-14.07,96-54.06,124.57-28.75,20.55-55.48-4.56-85.34,9.52-27.19,12.82-46.76,53.33-53.89,101.39H632.3V288C619,287.53,608.54,290.11,603,296.25Z" fill="#d8e2dc"/><path d="M94.08,632.3a160,160,0,0,0-53.12-60,169.88,169.88,0,0,0-41-20V632.3Z" fill="#9d8189"/><g opacity="0.68"><path d="M3.13,167.06A338.13,338.13,0,0,0,111,216.78c41.06,10.59,117.48,30.31,185.58-6.8,36.42-19.84,54.62-47.47,70.68-71.84,16.95-25.73,31.58-47.95,62.94-55.25,33.14-7.72,58,7.62,84.29,23.87,22.84,14.1,46.46,28.69,77.44,29.71A110.75,110.75,0,0,0,632.3,130V127.6a108.15,108.15,0,0,1-40.3,6.66c-30.4-1-53.76-15.43-76.36-29.39-26.7-16.49-51.92-32.06-85.95-24.14-14.75,3.43-26.79,10.2-37.91,21.29-9.89,9.87-17.9,22-26.38,34.9-15.92,24.16-33.95,51.54-69.88,71.12-67.34,36.69-143.22,17.11-184,6.59C68.64,203.57,31.6,184.59,0,162v2.87C1,165.61,2.08,166.34,3.13,167.06Z" fill="#e0a192"/></g><g opacity="0.55"><path d="M64.74,356.77C75,378.33,73.52,395.18,72,413c-1.43,16.62-2.91,33.8,4.76,56.1,13.88,40.35,44.45,58,74,75.09,24.77,14.31,48.16,27.82,62.64,53.64a99.05,99.05,0,0,1,11.43,34.44h2.28c-.07-.49-.13-1-.21-1.45a101.15,101.15,0,0,0-11.57-34.08c-14.78-26.34-39.53-40.64-63.47-54.47-29.21-16.88-59.42-34.33-73-73.89-7.52-21.85-6.06-38.8-4.65-55.19,1.56-18.15,3-35.3-7.45-57.4C54.75,330.55,32.38,310.2,0,295v2.45C31.4,312.37,53.1,332.22,64.74,356.77Z" fill="#e0a192"/></g><g opacity="0.28"><path d="M565.52,204.52c-3.44,7.23-2.92,13.45-2.07,23.76a243.57,243.57,0,0,1,.63,38.24,225.47,225.47,0,0,1-6.51,42.71c-1.61,6.75-2.87,12.08-2.87,17.61,0,7.34,2.29,14.8,6.78,22.18,5.15,8.46,13.37,17.09,24.45,25.67,11.93,9.23,27.43,18.6,46.37,28v-2.47q-27.54-13.81-45-27.32c-20.13-15.59-30.35-31.1-30.37-46.1,0-5.27,1.24-10.49,2.81-17.09a227.66,227.66,0,0,0,6.56-43.1,246.47,246.47,0,0,0-.62-38.55c-.83-9.94-1.32-15.94,1.86-22.63,7.24-15.24,29-24.08,64.78-26.43v-2.21c-14.28.92-26.38,2.86-36.2,5.8C580.49,187.3,570.2,194.67,565.52,204.52Z" fill="#e0a192"/></g></g></g></svg>